<svg width="31" height="31" viewBox="0 0 31 31" fill="none" xmlns="http://www.w3.org/2000/svg">
<path d="M22.2812 12.5938V16.4688C22.2812 16.7257 22.1792 16.9721 21.9975 17.1538C21.8158 17.3354 21.5694 17.4375 21.3125 17.4375H12.0258L13.2791 18.6896C13.3691 18.7796 13.4405 18.8865 13.4893 19.0041C13.538 19.1217 13.563 19.2477 13.563 19.375C13.563 19.5023 13.538 19.6283 13.4893 19.7459C13.4405 19.8635 13.3691 19.9704 13.2791 20.0604C13.1891 20.1504 13.0823 20.2218 12.9647 20.2705C12.8471 20.3192 12.721 20.3443 12.5938 20.3443C12.4665 20.3443 12.3404 20.3192 12.2228 20.2705C12.1052 20.2218 11.9984 20.1504 11.9084 20.0604L9.00211 17.1541C8.91204 17.0642 8.84058 16.9573 8.79183 16.8397C8.74308 16.7221 8.71799 16.5961 8.71799 16.4688C8.71799 16.3414 8.74308 16.2154 8.79183 16.0978C8.84058 15.9802 8.91204 15.8733 9.00211 15.7834L11.9084 12.8771C12.0901 12.6953 12.3367 12.5932 12.5938 12.5932C12.8508 12.5932 13.0974 12.6953 13.2791 12.8771C13.4609 13.0589 13.563 13.3054 13.563 13.5625C13.563 13.8196 13.4609 14.0661 13.2791 14.2479L12.0258 15.5H20.3438V12.5938C20.3438 12.3368 20.4458 12.0904 20.6275 11.9087C20.8092 11.7271 21.0556 11.625 21.3125 11.625C21.5694 11.625 21.8158 11.7271 21.9975 11.9087C22.1792 12.0904 22.2812 12.3368 22.2812 12.5938ZM28.0938 6.78125V24.2188C28.0938 24.7326 27.8896 25.2254 27.5263 25.5888C27.1629 25.9521 26.6701 26.1562 26.1562 26.1562H4.84375C4.32989 26.1562 3.83708 25.9521 3.47373 25.5888C3.11038 25.2254 2.90625 24.7326 2.90625 24.2188V6.78125C2.90625 6.26739 3.11038 5.77458 3.47373 5.41123C3.83708 5.04788 4.32989 4.84375 4.84375 4.84375H26.1562C26.6701 4.84375 27.1629 5.04788 27.5263 5.41123C27.8896 5.77458 28.0938 6.26739 28.0938 6.78125ZM26.1562 24.2188V6.78125H4.84375V24.2188H26.1562Z" fill="white"/>
</svg>
