<svg width="86" height="86" viewBox="0 0 86 86" fill="none" xmlns="http://www.w3.org/2000/svg">
<path d="M40.3125 59.125L36.5231 62.9144L43.4569 69.875H10.75V21.5H5.375V69.875C5.375 72.8393 7.78569 75.25 10.75 75.25H43.4569L36.5231 82.2106L40.3125 86L53.75 72.5625L40.3125 59.125Z" fill="black"/>
<path d="M29.5625 45.6875C31.0468 45.6875 32.25 44.4843 32.25 43C32.25 41.5157 31.0468 40.3125 29.5625 40.3125C28.0782 40.3125 26.875 41.5157 26.875 43C26.875 44.4843 28.0782 45.6875 29.5625 45.6875Z" fill="black"/>
<path d="M64.5 53.75H21.5C18.5357 53.75 16.125 51.3393 16.125 48.375V37.625C16.125 34.6607 18.5357 32.25 21.5 32.25H64.5C67.4643 32.25 69.875 34.6607 69.875 37.625V48.375C69.875 51.3393 67.4643 53.75 64.5 53.75ZM21.5 37.625V48.375H64.5V37.625H21.5Z" fill="black"/>
<path d="M75.25 10.75H42.5431L49.4769 3.78937L45.6875 0L32.25 13.4375L45.6875 26.875L49.4769 23.0856L42.5431 16.125H75.25V64.5H80.625V16.125C80.625 13.1634 78.2143 10.75 75.25 10.75Z" fill="black"/>
</svg>
