<svg width="61" height="61" viewBox="0 0 61 61" fill="none" xmlns="http://www.w3.org/2000/svg">
<path fill-rule="evenodd" clip-rule="evenodd" d="M40.6673 22.8747C40.6673 25.571 39.5962 28.157 37.6896 30.0636C35.783 31.9702 33.197 33.0413 30.5007 33.0413C27.8043 33.0413 25.2184 31.9702 23.3117 30.0636C21.4051 28.157 20.334 25.571 20.334 22.8747C20.334 20.1783 21.4051 17.5924 23.3117 15.6858C25.2184 13.7791 27.8043 12.708 30.5007 12.708C33.197 12.708 35.783 13.7791 37.6896 15.6858C39.5962 17.5924 40.6673 20.1783 40.6673 22.8747ZM35.584 22.8747C35.584 24.2229 35.0484 25.5158 34.0951 26.4691C33.1418 27.4224 31.8488 27.958 30.5007 27.958C29.1525 27.958 27.8595 27.4224 26.9062 26.4691C25.9529 25.5158 25.4173 24.2229 25.4173 22.8747C25.4173 21.5265 25.9529 20.2335 26.9062 19.2802C27.8595 18.3269 29.1525 17.7913 30.5007 17.7913C31.8488 17.7913 33.1418 18.3269 34.0951 19.2802C35.0484 20.2335 35.584 21.5265 35.584 22.8747Z" fill="#3E75C4"/>
<path fill-rule="evenodd" clip-rule="evenodd" d="M30.5003 2.5415C15.0597 2.5415 2.54199 15.0592 2.54199 30.4998C2.54199 45.9405 15.0597 58.4582 30.5003 58.4582C45.941 58.4582 58.4587 45.9405 58.4587 30.4998C58.4587 15.0592 45.941 2.5415 30.5003 2.5415ZM7.62533 30.4998C7.62533 35.8119 9.43753 40.7021 12.4748 44.5858C14.6084 41.7852 17.3603 39.5155 20.5157 37.9539C23.6712 36.3922 27.1448 35.5809 30.6655 35.5832C34.141 35.5791 37.5714 36.3688 40.6953 37.892C43.8191 39.4151 46.5539 41.6316 48.691 44.3723C50.8933 41.4839 52.376 38.1127 53.0167 34.5375C53.6573 30.9623 53.4374 27.286 52.3752 23.8127C51.3129 20.3394 49.4388 17.1689 46.908 14.5637C44.3772 11.9584 41.2624 9.99331 37.8213 8.83088C34.3802 7.66845 30.7118 7.34213 27.1196 7.87894C23.5273 8.41574 20.1145 9.80023 17.1636 11.9178C14.2127 14.0355 11.8084 16.8253 10.1498 20.0566C8.49114 23.2879 7.62578 26.8677 7.62533 30.4998ZM30.5003 53.3748C25.249 53.3834 20.1561 51.5768 16.084 48.261C17.7229 45.9141 19.9046 43.9979 22.4434 42.6756C24.9823 41.3533 27.803 40.664 30.6655 40.6665C33.4923 40.664 36.2789 41.3361 38.7937 42.6269C41.3086 43.9177 43.4792 45.79 45.1251 48.0882C41.0215 51.5118 35.8445 53.3832 30.5003 53.3748Z" fill="#3E75C4"/>
</svg>
