<svg width="31" height="31" viewBox="0 0 31 31" fill="none" xmlns="http://www.w3.org/2000/svg">
<path d="M14.5312 23.25C14.5312 23.5069 14.6333 23.7533 14.815 23.935C14.9967 24.1167 15.2431 24.2188 15.5 24.2188C15.7569 24.2188 16.0033 24.1167 16.185 23.935C16.3667 23.7533 16.4688 23.5069 16.4688 23.25V19.375C16.4688 19.1181 16.3667 18.8717 16.185 18.69C16.0033 18.5083 15.7569 18.4062 15.5 18.4062C15.2431 18.4062 14.9967 18.5083 14.815 18.69C14.6333 18.8717 14.5312 19.1181 14.5312 19.375V23.25Z" fill="white"/>
<path fill-rule="evenodd" clip-rule="evenodd" d="M15.5002 1.61475C14.5637 1.61475 13.7086 1.87308 12.7748 2.30837C11.868 2.73075 10.8218 3.35462 9.50943 4.13608L7.62876 5.25595C6.18338 6.1175 5.03251 6.80337 4.15934 7.45954C3.25905 8.13766 2.58351 8.83516 2.14434 9.75354C1.70259 10.6719 1.58376 11.6342 1.62122 12.7567C1.65868 13.843 1.84855 15.1643 2.08622 16.8202L2.46468 19.4449C2.7708 21.5762 3.01493 23.267 3.37788 24.5832C3.75247 25.9394 4.28463 27.018 5.24434 27.8433C6.20276 28.67 7.34976 29.0381 8.75251 29.2151C10.1165 29.3856 11.8357 29.3856 14.0044 29.3856H16.9959C19.1659 29.3856 20.8838 29.3856 22.2478 29.2151C23.6506 29.0381 24.7976 28.67 25.756 27.8446C26.7157 27.018 27.2479 25.9407 27.6225 24.5832C27.9854 23.2657 28.2296 21.5762 28.5357 19.4449L28.9128 16.8202C29.1518 15.1643 29.3417 13.843 29.3778 12.7567C29.4166 11.6329 29.2978 10.6719 28.8573 9.75354C28.4168 8.83516 27.7413 8.13766 26.841 7.45954C25.9691 6.80337 24.817 6.1175 23.3716 5.25595L21.4909 4.13608C20.1786 3.35462 19.1323 2.73075 18.2269 2.30837C17.2917 1.87179 16.4366 1.61475 15.5002 1.61475ZM10.4575 5.82687C11.8228 5.01312 12.7864 4.44091 13.5937 4.06375C14.3803 3.69691 14.9461 3.55225 15.5002 3.55225C16.0543 3.55225 16.6201 3.69691 17.4067 4.06375C18.214 4.44091 19.1763 5.01312 20.5428 5.82687L22.3318 6.8925C23.8366 7.78891 24.8971 8.42183 25.6772 9.00825C26.4354 9.58045 26.8526 10.0532 27.111 10.5905C27.368 11.1279 27.4752 11.7453 27.4429 12.6908C27.4093 13.6595 27.2363 14.875 26.9883 16.5994L26.6266 19.1013C26.3088 21.3152 26.0815 22.8833 25.7547 24.0678C25.4357 25.2251 25.0508 25.8955 24.4928 26.376C23.9335 26.8578 23.2088 27.142 22.0063 27.2931C20.7779 27.4468 19.1801 27.4481 16.9301 27.4481H14.0716C11.8202 27.4481 10.2224 27.4468 8.99405 27.2931C7.7928 27.142 7.06688 26.8578 6.50759 26.376C5.94959 25.8955 5.56468 25.2251 5.24563 24.0678C4.91884 22.8833 4.69022 21.3152 4.37247 19.1013L4.01209 16.5994C3.76409 14.875 3.59101 13.6582 3.55743 12.6908C3.52513 11.7453 3.63234 11.1279 3.89068 10.5905C4.14901 10.0532 4.56363 9.58045 5.32443 9.00825C6.1033 8.42183 7.16376 7.78891 8.66855 6.8925L10.4575 5.82687Z" fill="white"/>
</svg>
