<svg width="100" height="100" viewBox="0 0 100 100" fill="none" xmlns="http://www.w3.org/2000/svg">
<path fill-rule="evenodd" clip-rule="evenodd" d="M25 18.75C25 17.0924 25.6585 15.5027 26.8306 14.3306C28.0027 13.1585 29.5924 12.5 31.25 12.5H68.75C70.4076 12.5 71.9973 13.1585 73.1694 14.3306C74.3415 15.5027 75 17.0924 75 18.75V43.75H25V18.75ZM50 31.25V18.75H56.25V31.25H50Z" fill="black"/>
<path d="M12.5 50V81.25C12.5 82.9076 13.1585 84.4973 14.3306 85.6694C15.5027 86.8415 17.0924 87.5 18.75 87.5H81.25C82.9076 87.5 84.4973 86.8415 85.6694 85.6694C86.8415 84.4973 87.5 82.9076 87.5 81.25V50H68.75V62.5H62.5V50H37.5V62.5H31.25V50H12.5Z" fill="black"/>
</svg>
