<svg width="88" height="88" viewBox="0 0 88 88" fill="none" xmlns="http://www.w3.org/2000/svg">
<path d="M43.875 85.875H5.69318C4.68054 85.875 3.70937 85.4727 2.99332 84.7567C2.27727 84.0406 1.875 83.0695 1.875 82.0568V43.875C1.875 42.8624 2.27727 41.8912 2.99332 41.1751C3.70937 40.4591 4.68054 40.0568 5.69318 40.0568H43.875M43.875 85.875V40.0568M43.875 85.875H82.0568C83.0695 85.875 84.0406 85.4727 84.7567 84.7567C85.4727 84.0406 85.875 83.0695 85.875 82.0568V43.875C85.875 42.8624 85.4727 41.8912 84.7567 41.1751C84.0406 40.4591 83.0695 40.0568 82.0568 40.0568H43.875M62.9659 43.875V59.1477M47.6932 5.69318V20.9659M24.7841 43.875V59.1477M17.1477 5.69318V40.0568H70.6023V5.69318C70.6023 4.68054 70.2 3.70937 69.484 2.99332C68.7679 2.27727 67.7967 1.875 66.7841 1.875H20.9659C19.9533 1.875 18.9821 2.27727 18.266 2.99332C17.55 3.70937 17.1477 4.68054 17.1477 5.69318Z" stroke="black" stroke-width="3.75"/>
</svg>
