<svg width="61" height="61" viewBox="0 0 61 61" fill="none" xmlns="http://www.w3.org/2000/svg">
<path fill-rule="evenodd" clip-rule="evenodd" d="M40.6673 22.8757C40.6673 25.572 39.5962 28.158 37.6896 30.0646C35.783 31.9712 33.197 33.0423 30.5007 33.0423C27.8043 33.0423 25.2184 31.9712 23.3117 30.0646C21.4051 28.158 20.334 25.572 20.334 22.8757C20.334 20.1793 21.4051 17.5934 23.3117 15.6867C25.2184 13.7801 27.8043 12.709 30.5007 12.709C33.197 12.709 35.783 13.7801 37.6896 15.6867C39.5962 17.5934 40.6673 20.1793 40.6673 22.8757ZM35.584 22.8757C35.584 24.2238 35.0484 25.5168 34.0951 26.4701C33.1418 27.4234 31.8488 27.959 30.5007 27.959C29.1525 27.959 27.8595 27.4234 26.9062 26.4701C25.9529 25.5168 25.4173 24.2238 25.4173 22.8757C25.4173 21.5275 25.9529 20.2345 26.9062 19.2812C27.8595 18.3279 29.1525 17.7923 30.5007 17.7923C31.8488 17.7923 33.1418 18.3279 34.0951 19.2812C35.0484 20.2345 35.584 21.5275 35.584 22.8757Z" fill="#424754"/>
<path fill-rule="evenodd" clip-rule="evenodd" d="M30.5003 2.54199C15.0597 2.54199 2.54199 15.0597 2.54199 30.5003C2.54199 45.941 15.0597 58.4587 30.5003 58.4587C45.941 58.4587 58.4587 45.941 58.4587 30.5003C58.4587 15.0597 45.941 2.54199 30.5003 2.54199ZM7.62533 30.5003C7.62533 35.8124 9.43753 40.7026 12.4748 44.5862C14.6084 41.7856 17.3603 39.516 20.5157 37.9543C23.6712 36.3927 27.1448 35.5814 30.6655 35.5837C34.141 35.5796 37.5714 36.3693 40.6953 37.8924C43.8191 39.4156 46.5539 41.6321 48.691 44.3727C50.8933 41.4844 52.376 38.1132 53.0167 34.538C53.6573 30.9628 53.4374 27.2865 52.3752 23.8132C51.3129 20.3398 49.4388 17.1694 46.908 14.5642C44.3772 11.9589 41.2624 9.9938 37.8213 8.83137C34.3802 7.66894 30.7118 7.34262 27.1196 7.87942C23.5273 8.41623 20.1145 9.80072 17.1636 11.9183C14.2127 14.036 11.8084 16.8258 10.1498 20.0571C8.49114 23.2884 7.62578 26.8682 7.62533 30.5003ZM30.5003 53.3753C25.249 53.3838 20.1561 51.5773 16.084 48.2615C17.7229 45.9146 19.9046 43.9984 22.4434 42.6761C24.9823 41.3538 27.803 40.6645 30.6655 40.667C33.4923 40.6645 36.2789 41.3366 38.7937 42.6274C41.3086 43.9182 43.4792 45.7905 45.1251 48.0887C41.0215 51.5123 35.8445 53.3837 30.5003 53.3753Z" fill="#424754"/>
</svg>
